<mxfile host="65bd71144e" modified="2021-02-25T15:52:37.405Z" agent="5.0 (Windows NT 10.0; Win64; x64) AppleWebKit/537.36 (KHTML, like Gecko) Code/1.53.2 Chrome/87.0.4280.141 Electron/11.2.1 Safari/537.36" etag="CO-QX88nl13yzxRrRxRR" version="14.2.4" type="embed">
    <diagram id="xaqu7M64llhmUzALU_Qg" name="Page-1">
        <mxGraphModel dx="1352" dy="781" grid="1" gridSize="10" guides="1" tooltips="1" connect="1" arrows="1" fold="1" page="1" pageScale="1" pageWidth="827" pageHeight="1169" background="#858585" math="0" shadow="0">
            <root>
                <mxCell id="0"/>
                <mxCell id="1" parent="0"/>
                <mxCell id="K-W6jXl_5-GQBgab59d4-2" value="" style="strokeWidth=1;shadow=0;dashed=0;align=center;html=1;shape=mxgraph.mockup.containers.browserWindow;rSize=0;strokeColor=#666666;strokeColor2=#008cff;strokeColor3=#c4c4c4;mainText=,;recursiveResize=0;" parent="1" vertex="1">
                    <mxGeometry x="70" y="40" width="670" height="420" as="geometry"/>
                </mxCell>
                <mxCell id="K-W6jXl_5-GQBgab59d4-3" value="SEAD SPS" style="strokeWidth=1;shadow=0;dashed=0;align=center;html=1;shape=mxgraph.mockup.containers.anchor;fontSize=17;fontColor=#666666;align=left;" parent="K-W6jXl_5-GQBgab59d4-2" vertex="1">
                    <mxGeometry x="60" y="12" width="110" height="26" as="geometry"/>
                </mxCell>
                <mxCell id="K-W6jXl_5-GQBgab59d4-4" value="https://localhost/calendar/read/12345" style="strokeWidth=1;shadow=0;dashed=0;align=center;html=1;shape=mxgraph.mockup.containers.anchor;rSize=0;fontSize=17;fontColor=#666666;align=left;" parent="K-W6jXl_5-GQBgab59d4-2" vertex="1">
                    <mxGeometry x="130" y="60" width="250" height="26" as="geometry"/>
                </mxCell>
                <UserObject label="Você está em: Processos &amp;gt; Edita 00/0000 &amp;gt; Chamada 0 &amp;gt; Calendário (Nome)" placeholders="1" name="Variable" id="K-W6jXl_5-GQBgab59d4-27">
                    <mxCell style="text;html=1;strokeColor=none;fillColor=none;align=left;verticalAlign=middle;whiteSpace=wrap;overflow=hidden;" parent="K-W6jXl_5-GQBgab59d4-2" vertex="1">
                        <mxGeometry x="20" y="132" width="530" height="20" as="geometry"/>
                    </mxCell>
                </UserObject>
                <mxCell id="K-W6jXl_5-GQBgab59d4-28" style="edgeStyle=orthogonalEdgeStyle;rounded=0;orthogonalLoop=1;jettySize=auto;html=1;exitX=0.5;exitY=1;exitDx=0;exitDy=0;" parent="K-W6jXl_5-GQBgab59d4-2" source="K-W6jXl_5-GQBgab59d4-27" target="K-W6jXl_5-GQBgab59d4-27" edge="1">
                    <mxGeometry relative="1" as="geometry"/>
                </mxCell>
                <mxCell id="K-W6jXl_5-GQBgab59d4-33" value="Calendário (Nome)" style="text;strokeColor=none;fillColor=none;html=1;fontSize=24;fontStyle=1;verticalAlign=middle;align=left;" parent="K-W6jXl_5-GQBgab59d4-2" vertex="1">
                    <mxGeometry x="20" y="160" width="100" height="40" as="geometry"/>
                </mxCell>
                <mxCell id="K-W6jXl_5-GQBgab59d4-34" value="" style="group" parent="K-W6jXl_5-GQBgab59d4-2" vertex="1" connectable="0">
                    <mxGeometry x="20" y="210" width="530" height="80" as="geometry"/>
                </mxCell>
                <UserObject label="Nome:" placeholders="1" name="Variable" id="K-W6jXl_5-GQBgab59d4-29">
                    <mxCell style="text;html=1;strokeColor=none;fillColor=none;align=left;verticalAlign=middle;whiteSpace=wrap;overflow=hidden;" parent="K-W6jXl_5-GQBgab59d4-34" vertex="1">
                        <mxGeometry width="530" height="20" as="geometry"/>
                    </mxCell>
                </UserObject>
                <UserObject label="Data:" placeholders="1" name="Variable" id="K-W6jXl_5-GQBgab59d4-30">
                    <mxCell style="text;html=1;strokeColor=none;fillColor=none;align=left;verticalAlign=middle;whiteSpace=wrap;overflow=hidden;" parent="K-W6jXl_5-GQBgab59d4-34" vertex="1">
                        <mxGeometry y="20" width="530" height="20" as="geometry"/>
                    </mxCell>
                </UserObject>
                <UserObject label="Pronto:" placeholders="1" name="Variable" id="K-W6jXl_5-GQBgab59d4-31">
                    <mxCell style="text;html=1;strokeColor=none;fillColor=none;align=left;verticalAlign=middle;whiteSpace=wrap;overflow=hidden;" parent="K-W6jXl_5-GQBgab59d4-34" vertex="1">
                        <mxGeometry y="40" width="530" height="20" as="geometry"/>
                    </mxCell>
                </UserObject>
                <UserObject label="Status:" placeholders="1" name="Variable" id="K-W6jXl_5-GQBgab59d4-32">
                    <mxCell style="text;html=1;strokeColor=none;fillColor=none;align=left;verticalAlign=middle;whiteSpace=wrap;overflow=hidden;" parent="K-W6jXl_5-GQBgab59d4-34" vertex="1">
                        <mxGeometry y="60" width="530" height="20" as="geometry"/>
                    </mxCell>
                </UserObject>
                <mxCell id="K-W6jXl_5-GQBgab59d4-35" value="Adicionar tipo de evento:" style="text;strokeColor=none;fillColor=none;html=1;fontSize=18;fontStyle=1;verticalAlign=middle;align=left;" parent="K-W6jXl_5-GQBgab59d4-2" vertex="1">
                    <mxGeometry x="20" y="300" width="100" height="40" as="geometry"/>
                </mxCell>
                <mxCell id="K-W6jXl_5-GQBgab59d4-36" value="" style="html=1;shadow=0;dashed=0;shape=mxgraph.bootstrap.rrect;rSize=5;strokeColor=#DFDFDF;html=1;whiteSpace=wrap;fillColor=#FFFFFF;fontColor=#000000;align=left;" parent="K-W6jXl_5-GQBgab59d4-2" vertex="1">
                    <mxGeometry x="20" y="340" width="620" height="60" as="geometry"/>
                </mxCell>
                <mxCell id="K-W6jXl_5-GQBgab59d4-37" value="Evento de inscrição" style="strokeColor=inherit;fillColor=inherit;gradientColor=inherit;fontColor=inherit;html=1;shadow=0;dashed=0;shape=mxgraph.bootstrap.topButton;rSize=5;perimeter=none;whiteSpace=wrap;resizeWidth=1;align=left;spacing=10;" parent="K-W6jXl_5-GQBgab59d4-36" vertex="1">
                    <mxGeometry width="620" height="30" relative="1" as="geometry"/>
                </mxCell>
                <mxCell id="K-W6jXl_5-GQBgab59d4-39" value="Evento de recurso" style="strokeColor=inherit;fillColor=inherit;gradientColor=inherit;fontColor=inherit;html=1;shadow=0;dashed=0;shape=mxgraph.bootstrap.bottomButton;rSize=5;perimeter=none;whiteSpace=wrap;resizeWidth=1;resizeHeight=0;align=left;spacing=10;" parent="K-W6jXl_5-GQBgab59d4-36" vertex="1">
                    <mxGeometry y="1" width="620" height="30" relative="1" as="geometry">
                        <mxPoint y="-30" as="offset"/>
                    </mxGeometry>
                </mxCell>
                <mxCell id="K-W6jXl_5-GQBgab59d4-40" value="" style="strokeWidth=1;shadow=0;dashed=0;align=center;html=1;shape=mxgraph.mockup.containers.browserWindow;rSize=0;strokeColor=#666666;strokeColor2=#008cff;strokeColor3=#c4c4c4;mainText=,;recursiveResize=0;" parent="1" vertex="1">
                    <mxGeometry x="70" y="500" width="670" height="360" as="geometry"/>
                </mxCell>
                <mxCell id="K-W6jXl_5-GQBgab59d4-41" value="SEAD SPS" style="strokeWidth=1;shadow=0;dashed=0;align=center;html=1;shape=mxgraph.mockup.containers.anchor;fontSize=17;fontColor=#666666;align=left;" parent="K-W6jXl_5-GQBgab59d4-40" vertex="1">
                    <mxGeometry x="60" y="12" width="110" height="26" as="geometry"/>
                </mxCell>
                <mxCell id="K-W6jXl_5-GQBgab59d4-42" value="https://localhost/petition-event/create?calendar_id=12345" style="strokeWidth=1;shadow=0;dashed=0;align=center;html=1;shape=mxgraph.mockup.containers.anchor;rSize=0;fontSize=17;fontColor=#666666;align=left;" parent="K-W6jXl_5-GQBgab59d4-40" vertex="1">
                    <mxGeometry x="130" y="60" width="250" height="26" as="geometry"/>
                </mxCell>
                <UserObject label="Você está em: Processos &amp;gt; Edita 00/0000 &amp;gt; Chamada 0 &amp;gt; Calendário (Nome) &amp;gt; Novo evento de recurso" placeholders="1" name="Variable" id="K-W6jXl_5-GQBgab59d4-43">
                    <mxCell style="text;html=1;strokeColor=none;fillColor=none;align=left;verticalAlign=middle;whiteSpace=wrap;overflow=hidden;" parent="K-W6jXl_5-GQBgab59d4-40" vertex="1">
                        <mxGeometry x="20" y="132" width="570" height="20" as="geometry"/>
                    </mxCell>
                </UserObject>
                <mxCell id="K-W6jXl_5-GQBgab59d4-44" style="edgeStyle=orthogonalEdgeStyle;rounded=0;orthogonalLoop=1;jettySize=auto;html=1;exitX=0.5;exitY=1;exitDx=0;exitDy=0;" parent="K-W6jXl_5-GQBgab59d4-40" source="K-W6jXl_5-GQBgab59d4-43" target="K-W6jXl_5-GQBgab59d4-43" edge="1">
                    <mxGeometry relative="1" as="geometry"/>
                </mxCell>
                <mxCell id="K-W6jXl_5-GQBgab59d4-45" value="Novo evento de recurso" style="text;strokeColor=none;fillColor=none;html=1;fontSize=24;fontStyle=1;verticalAlign=middle;align=left;" parent="K-W6jXl_5-GQBgab59d4-40" vertex="1">
                    <mxGeometry x="20" y="160" width="100" height="40" as="geometry"/>
                </mxCell>
                <mxCell id="K-W6jXl_5-GQBgab59d4-57" value="Nome do calendário (Evento de inscrição ID)" style="html=1;shadow=0;dashed=0;shape=mxgraph.bootstrap.rrect;rSize=5;strokeColor=#505050;strokeWidth=1;fillColor=#ffffff;fontColor=#777777;whiteSpace=wrap;align=left;verticalAlign=middle;fontStyle=0;fontSize=14;spacingRight=0;spacing=17;" parent="K-W6jXl_5-GQBgab59d4-40" vertex="1">
                    <mxGeometry x="20" y="240" width="540" height="40" as="geometry"/>
                </mxCell>
                <mxCell id="K-W6jXl_5-GQBgab59d4-58" value="" style="shape=triangle;direction=south;fillColor=#495057;strokeColor=none;perimeter=none;" parent="K-W6jXl_5-GQBgab59d4-57" vertex="1">
                    <mxGeometry x="1" y="0.5" width="10" height="5" relative="1" as="geometry">
                        <mxPoint x="-17" y="-2.5" as="offset"/>
                    </mxGeometry>
                </mxCell>
                <mxCell id="K-W6jXl_5-GQBgab59d4-61" value="EVENTO DE INSCRIÇÃO" style="text;strokeColor=none;fillColor=none;html=1;fontSize=16;fontStyle=1;verticalAlign=middle;align=left;" parent="K-W6jXl_5-GQBgab59d4-40" vertex="1">
                    <mxGeometry x="20" y="210" width="100" height="40" as="geometry"/>
                </mxCell>
                <mxCell id="K-W6jXl_5-GQBgab59d4-62" value="Criar" style="html=1;shadow=0;dashed=0;shape=mxgraph.bootstrap.rrect;rSize=5;strokeColor=#C73500;strokeWidth=1;fillColor=#fa6800;fontColor=#ffffff;whiteSpace=wrap;align=center;verticalAlign=middle;spacingLeft=0;fontStyle=0;fontSize=16;spacing=5;" parent="K-W6jXl_5-GQBgab59d4-40" vertex="1">
                    <mxGeometry x="480" y="300" width="80" height="40" as="geometry"/>
                </mxCell>
                <mxCell id="K-W6jXl_5-GQBgab59d4-63" value="" style="strokeWidth=1;shadow=0;dashed=0;align=center;html=1;shape=mxgraph.mockup.containers.browserWindow;rSize=0;strokeColor=#666666;strokeColor2=#008cff;strokeColor3=#c4c4c4;mainText=,;recursiveResize=0;" parent="1" vertex="1">
                    <mxGeometry x="70" y="900" width="670" height="360" as="geometry"/>
                </mxCell>
                <mxCell id="K-W6jXl_5-GQBgab59d4-64" value="SEAD SPS" style="strokeWidth=1;shadow=0;dashed=0;align=center;html=1;shape=mxgraph.mockup.containers.anchor;fontSize=17;fontColor=#666666;align=left;" parent="K-W6jXl_5-GQBgab59d4-63" vertex="1">
                    <mxGeometry x="60" y="12" width="110" height="26" as="geometry"/>
                </mxCell>
                <mxCell id="K-W6jXl_5-GQBgab59d4-65" value="https://localhost/petition-event/delete/67890" style="strokeWidth=1;shadow=0;dashed=0;align=center;html=1;shape=mxgraph.mockup.containers.anchor;rSize=0;fontSize=17;fontColor=#666666;align=left;" parent="K-W6jXl_5-GQBgab59d4-63" vertex="1">
                    <mxGeometry x="130" y="60" width="250" height="26" as="geometry"/>
                </mxCell>
                <UserObject label="Você está em: Processos &amp;gt; Edita 00/0000 &amp;gt; Chamada 0 &amp;gt; Calendário (Nome) &amp;gt; Evento de recurso &amp;gt; excluir" placeholders="1" name="Variable" id="K-W6jXl_5-GQBgab59d4-66">
                    <mxCell style="text;html=1;strokeColor=none;fillColor=none;align=left;verticalAlign=middle;whiteSpace=wrap;overflow=hidden;" parent="K-W6jXl_5-GQBgab59d4-63" vertex="1">
                        <mxGeometry x="23" y="132" width="597" height="20" as="geometry"/>
                    </mxCell>
                </UserObject>
                <mxCell id="K-W6jXl_5-GQBgab59d4-67" style="edgeStyle=orthogonalEdgeStyle;rounded=0;orthogonalLoop=1;jettySize=auto;html=1;exitX=0.5;exitY=1;exitDx=0;exitDy=0;" parent="K-W6jXl_5-GQBgab59d4-63" source="K-W6jXl_5-GQBgab59d4-66" target="K-W6jXl_5-GQBgab59d4-66" edge="1">
                    <mxGeometry relative="1" as="geometry"/>
                </mxCell>
                <mxCell id="K-W6jXl_5-GQBgab59d4-68" value="Excluir evento de recurso" style="text;strokeColor=none;fillColor=none;html=1;fontSize=24;fontStyle=1;verticalAlign=middle;align=left;" parent="K-W6jXl_5-GQBgab59d4-63" vertex="1">
                    <mxGeometry x="20" y="160" width="100" height="40" as="geometry"/>
                </mxCell>
                <mxCell id="K-W6jXl_5-GQBgab59d4-72" value="Excluir" style="html=1;shadow=0;dashed=0;shape=mxgraph.bootstrap.rrect;rSize=5;strokeColor=#C73500;strokeWidth=1;fillColor=#fa6800;fontColor=#ffffff;whiteSpace=wrap;align=center;verticalAlign=middle;spacingLeft=0;fontStyle=0;fontSize=16;spacing=5;" parent="K-W6jXl_5-GQBgab59d4-63" vertex="1">
                    <mxGeometry x="141" y="300" width="80" height="40" as="geometry"/>
                </mxCell>
                <mxCell id="YiHwfi0G9mCTUkcACJLo-1" value="" style="group" parent="K-W6jXl_5-GQBgab59d4-63" vertex="1" connectable="0">
                    <mxGeometry x="20" y="200" width="530" height="80" as="geometry"/>
                </mxCell>
                <UserObject label="Id:" placeholders="1" name="Variable" id="YiHwfi0G9mCTUkcACJLo-2">
                    <mxCell style="text;html=1;strokeColor=none;fillColor=none;align=left;verticalAlign=middle;whiteSpace=wrap;overflow=hidden;" parent="YiHwfi0G9mCTUkcACJLo-1" vertex="1">
                        <mxGeometry width="530" height="20" as="geometry"/>
                    </mxCell>
                </UserObject>
                <UserObject label="Processo:" placeholders="1" name="Variable" id="YiHwfi0G9mCTUkcACJLo-3">
                    <mxCell style="text;html=1;strokeColor=none;fillColor=none;align=left;verticalAlign=middle;whiteSpace=wrap;overflow=hidden;" parent="YiHwfi0G9mCTUkcACJLo-1" vertex="1">
                        <mxGeometry y="20" width="530" height="20" as="geometry"/>
                    </mxCell>
                </UserObject>
                <UserObject label="Calendário:" placeholders="1" name="Variable" id="YiHwfi0G9mCTUkcACJLo-4">
                    <mxCell style="text;html=1;strokeColor=none;fillColor=none;align=left;verticalAlign=middle;whiteSpace=wrap;overflow=hidden;" parent="YiHwfi0G9mCTUkcACJLo-1" vertex="1">
                        <mxGeometry y="40" width="530" height="20" as="geometry"/>
                    </mxCell>
                </UserObject>
                <UserObject label="Evento de inscrição:" placeholders="1" name="Variable" id="YiHwfi0G9mCTUkcACJLo-5">
                    <mxCell style="text;html=1;strokeColor=none;fillColor=none;align=left;verticalAlign=middle;whiteSpace=wrap;overflow=hidden;" parent="YiHwfi0G9mCTUkcACJLo-1" vertex="1">
                        <mxGeometry y="60" width="530" height="20" as="geometry"/>
                    </mxCell>
                </UserObject>
                <mxCell id="YiHwfi0G9mCTUkcACJLo-7" value="&lt;font color=&quot;#ffb570&quot;&gt;Cancelar&lt;/font&gt;" style="html=1;shadow=0;dashed=0;shape=mxgraph.bootstrap.rrect;rSize=5;strokeWidth=1;fillColor=none;fontColor=#DB2843;whiteSpace=wrap;align=center;verticalAlign=middle;spacingLeft=0;fontStyle=0;fontSize=16;spacing=5;strokeColor=#FFB570;" parent="K-W6jXl_5-GQBgab59d4-63" vertex="1">
                    <mxGeometry x="41" y="300" width="80" height="40" as="geometry"/>
                </mxCell>
                <mxCell id="YiHwfi0G9mCTUkcACJLo-8" value="" style="strokeWidth=1;shadow=0;dashed=0;align=center;html=1;shape=mxgraph.mockup.containers.browserWindow;rSize=0;strokeColor=#666666;strokeColor2=#008cff;strokeColor3=#c4c4c4;mainText=,;recursiveResize=0;" parent="1" vertex="1">
                    <mxGeometry x="70" y="1300" width="670" height="360" as="geometry"/>
                </mxCell>
                <mxCell id="YiHwfi0G9mCTUkcACJLo-9" value="SEAD SPS" style="strokeWidth=1;shadow=0;dashed=0;align=center;html=1;shape=mxgraph.mockup.containers.anchor;fontSize=17;fontColor=#666666;align=left;" parent="YiHwfi0G9mCTUkcACJLo-8" vertex="1">
                    <mxGeometry x="60" y="12" width="110" height="26" as="geometry"/>
                </mxCell>
                <mxCell id="YiHwfi0G9mCTUkcACJLo-10" value="https://localhost/petition-event/list?call_id=123456" style="strokeWidth=1;shadow=0;dashed=0;align=center;html=1;shape=mxgraph.mockup.containers.anchor;rSize=0;fontSize=17;fontColor=#666666;align=left;" parent="YiHwfi0G9mCTUkcACJLo-8" vertex="1">
                    <mxGeometry x="130" y="60" width="250" height="26" as="geometry"/>
                </mxCell>
                <UserObject label="Você está em: Processos &amp;gt; Edita 00/0000 &amp;gt; Chamada 0 &amp;gt; Eventos de recurso" placeholders="1" name="Variable" id="YiHwfi0G9mCTUkcACJLo-11">
                    <mxCell style="text;html=1;strokeColor=none;fillColor=none;align=left;verticalAlign=middle;whiteSpace=wrap;overflow=hidden;" parent="YiHwfi0G9mCTUkcACJLo-8" vertex="1">
                        <mxGeometry x="20" y="132" width="530" height="20" as="geometry"/>
                    </mxCell>
                </UserObject>
                <mxCell id="YiHwfi0G9mCTUkcACJLo-12" style="edgeStyle=orthogonalEdgeStyle;rounded=0;orthogonalLoop=1;jettySize=auto;html=1;exitX=0.5;exitY=1;exitDx=0;exitDy=0;" parent="YiHwfi0G9mCTUkcACJLo-8" source="YiHwfi0G9mCTUkcACJLo-11" target="YiHwfi0G9mCTUkcACJLo-11" edge="1">
                    <mxGeometry relative="1" as="geometry"/>
                </mxCell>
                <mxCell id="YiHwfi0G9mCTUkcACJLo-13" value="Lista de eventos de recurso" style="text;strokeColor=none;fillColor=none;html=1;fontSize=24;fontStyle=1;verticalAlign=middle;align=left;" parent="YiHwfi0G9mCTUkcACJLo-8" vertex="1">
                    <mxGeometry x="20" y="160" width="100" height="40" as="geometry"/>
                </mxCell>
                <mxCell id="XxeCC5pC4PV6zOJk-9q2-3" value="" style="shape=table;html=1;whiteSpace=wrap;startSize=0;container=1;collapsible=0;childLayout=tableLayout;rounded=0;" parent="YiHwfi0G9mCTUkcACJLo-8" vertex="1">
                    <mxGeometry x="20" y="200" width="630" height="120" as="geometry"/>
                </mxCell>
                <mxCell id="XxeCC5pC4PV6zOJk-9q2-4" value="" style="shape=partialRectangle;html=1;whiteSpace=wrap;collapsible=0;dropTarget=0;pointerEvents=0;fillColor=none;top=0;left=0;bottom=0;right=0;points=[[0,0.5],[1,0.5]];portConstraint=eastwest;" parent="XxeCC5pC4PV6zOJk-9q2-3" vertex="1">
                    <mxGeometry width="630" height="40" as="geometry"/>
                </mxCell>
                <mxCell id="XxeCC5pC4PV6zOJk-9q2-5" value="Calendário" style="shape=partialRectangle;html=1;whiteSpace=wrap;connectable=0;fillColor=none;top=0;left=0;bottom=0;right=0;overflow=hidden;" parent="XxeCC5pC4PV6zOJk-9q2-4" vertex="1">
                    <mxGeometry width="158" height="40" as="geometry"/>
                </mxCell>
                <mxCell id="XxeCC5pC4PV6zOJk-9q2-6" value="Datas" style="shape=partialRectangle;html=1;whiteSpace=wrap;connectable=0;fillColor=none;top=0;left=0;bottom=0;right=0;overflow=hidden;" parent="XxeCC5pC4PV6zOJk-9q2-4" vertex="1">
                    <mxGeometry x="158" width="157" height="40" as="geometry"/>
                </mxCell>
                <mxCell id="XxeCC5pC4PV6zOJk-9q2-7" value="Status" style="shape=partialRectangle;html=1;whiteSpace=wrap;connectable=0;fillColor=none;top=0;left=0;bottom=0;right=0;overflow=hidden;" parent="XxeCC5pC4PV6zOJk-9q2-4" vertex="1">
                    <mxGeometry x="315" width="158" height="40" as="geometry"/>
                </mxCell>
                <mxCell id="XxeCC5pC4PV6zOJk-9q2-16" value="Options" style="shape=partialRectangle;html=1;whiteSpace=wrap;connectable=0;fillColor=none;top=0;left=0;bottom=0;right=0;overflow=hidden;" parent="XxeCC5pC4PV6zOJk-9q2-4" vertex="1">
                    <mxGeometry x="473" width="157" height="40" as="geometry"/>
                </mxCell>
                <mxCell id="XxeCC5pC4PV6zOJk-9q2-8" value="" style="shape=partialRectangle;html=1;whiteSpace=wrap;collapsible=0;dropTarget=0;pointerEvents=0;fillColor=none;top=0;left=0;bottom=0;right=0;points=[[0,0.5],[1,0.5]];portConstraint=eastwest;" parent="XxeCC5pC4PV6zOJk-9q2-3" vertex="1">
                    <mxGeometry y="40" width="630" height="40" as="geometry"/>
                </mxCell>
                <mxCell id="XxeCC5pC4PV6zOJk-9q2-9" value="Recurso Etapa 01" style="shape=partialRectangle;html=1;whiteSpace=wrap;connectable=0;fillColor=none;top=0;left=0;bottom=0;right=0;overflow=hidden;" parent="XxeCC5pC4PV6zOJk-9q2-8" vertex="1">
                    <mxGeometry width="158" height="40" as="geometry"/>
                </mxCell>
                <mxCell id="XxeCC5pC4PV6zOJk-9q2-10" value="&amp;nbsp;x até y" style="shape=partialRectangle;html=1;whiteSpace=wrap;connectable=0;fillColor=none;top=0;left=0;bottom=0;right=0;overflow=hidden;" parent="XxeCC5pC4PV6zOJk-9q2-8" vertex="1">
                    <mxGeometry x="158" width="157" height="40" as="geometry"/>
                </mxCell>
                <mxCell id="XxeCC5pC4PV6zOJk-9q2-11" value="concluido" style="shape=partialRectangle;html=1;whiteSpace=wrap;connectable=0;fillColor=none;top=0;left=0;bottom=0;right=0;overflow=hidden;" parent="XxeCC5pC4PV6zOJk-9q2-8" vertex="1">
                    <mxGeometry x="315" width="158" height="40" as="geometry"/>
                </mxCell>
                <mxCell id="XxeCC5pC4PV6zOJk-9q2-17" style="shape=partialRectangle;html=1;whiteSpace=wrap;connectable=0;fillColor=none;top=0;left=0;bottom=0;right=0;overflow=hidden;" parent="XxeCC5pC4PV6zOJk-9q2-8" vertex="1">
                    <mxGeometry x="473" width="157" height="40" as="geometry"/>
                </mxCell>
                <mxCell id="XxeCC5pC4PV6zOJk-9q2-12" value="" style="shape=partialRectangle;html=1;whiteSpace=wrap;collapsible=0;dropTarget=0;pointerEvents=0;fillColor=none;top=0;left=0;bottom=0;right=0;points=[[0,0.5],[1,0.5]];portConstraint=eastwest;" parent="XxeCC5pC4PV6zOJk-9q2-3" vertex="1">
                    <mxGeometry y="80" width="630" height="40" as="geometry"/>
                </mxCell>
                <mxCell id="XxeCC5pC4PV6zOJk-9q2-13" value="Recurso Etapa 02" style="shape=partialRectangle;html=1;whiteSpace=wrap;connectable=0;fillColor=none;top=0;left=0;bottom=0;right=0;overflow=hidden;" parent="XxeCC5pC4PV6zOJk-9q2-12" vertex="1">
                    <mxGeometry width="158" height="40" as="geometry"/>
                </mxCell>
                <mxCell id="XxeCC5pC4PV6zOJk-9q2-14" value="z até w" style="shape=partialRectangle;html=1;whiteSpace=wrap;connectable=0;fillColor=none;top=0;left=0;bottom=0;right=0;overflow=hidden;" parent="XxeCC5pC4PV6zOJk-9q2-12" vertex="1">
                    <mxGeometry x="158" width="157" height="40" as="geometry"/>
                </mxCell>
                <mxCell id="XxeCC5pC4PV6zOJk-9q2-15" value="em andamento" style="shape=partialRectangle;html=1;whiteSpace=wrap;connectable=0;fillColor=none;top=0;left=0;bottom=0;right=0;overflow=hidden;" parent="XxeCC5pC4PV6zOJk-9q2-12" vertex="1">
                    <mxGeometry x="315" width="158" height="40" as="geometry"/>
                </mxCell>
                <mxCell id="XxeCC5pC4PV6zOJk-9q2-18" style="shape=partialRectangle;html=1;whiteSpace=wrap;connectable=0;fillColor=none;top=0;left=0;bottom=0;right=0;overflow=hidden;" parent="XxeCC5pC4PV6zOJk-9q2-12" vertex="1">
                    <mxGeometry x="473" width="157" height="40" as="geometry"/>
                </mxCell>
                <mxCell id="XxeCC5pC4PV6zOJk-9q2-23" value="" style="html=1;verticalLabelPosition=bottom;align=center;labelBackgroundColor=#ffffff;verticalAlign=top;strokeWidth=2;strokeColor=#0080F0;shadow=0;dashed=0;shape=mxgraph.ios7.icons.eye;rounded=0;" parent="YiHwfi0G9mCTUkcACJLo-8" vertex="1">
                    <mxGeometry x="610" y="251.47" width="30" height="17.05" as="geometry"/>
                </mxCell>
                <mxCell id="XxeCC5pC4PV6zOJk-9q2-25" value="" style="html=1;verticalLabelPosition=bottom;align=center;labelBackgroundColor=#ffffff;verticalAlign=top;strokeWidth=2;strokeColor=#0080F0;shadow=0;dashed=0;shape=mxgraph.ios7.icons.eye;rounded=0;" parent="YiHwfi0G9mCTUkcACJLo-8" vertex="1">
                    <mxGeometry x="610" y="290" width="30" height="17.05" as="geometry"/>
                </mxCell>
                <mxCell id="YiHwfi0G9mCTUkcACJLo-21" value="" style="strokeWidth=1;shadow=0;dashed=0;align=center;html=1;shape=mxgraph.mockup.containers.browserWindow;rSize=0;strokeColor=#666666;strokeColor2=#008cff;strokeColor3=#c4c4c4;mainText=,;recursiveResize=0;" parent="1" vertex="1">
                    <mxGeometry x="70" y="1720" width="670" height="530" as="geometry"/>
                </mxCell>
                <mxCell id="YiHwfi0G9mCTUkcACJLo-22" value="SEAD SPS" style="strokeWidth=1;shadow=0;dashed=0;align=center;html=1;shape=mxgraph.mockup.containers.anchor;fontSize=17;fontColor=#666666;align=left;" parent="YiHwfi0G9mCTUkcACJLo-21" vertex="1">
                    <mxGeometry x="60" y="12" width="110" height="26" as="geometry"/>
                </mxCell>
                <mxCell id="YiHwfi0G9mCTUkcACJLo-23" value="https://localhost/petition-event/read/123456" style="strokeWidth=1;shadow=0;dashed=0;align=center;html=1;shape=mxgraph.mockup.containers.anchor;rSize=0;fontSize=17;fontColor=#666666;align=left;" parent="YiHwfi0G9mCTUkcACJLo-21" vertex="1">
                    <mxGeometry x="130" y="60" width="250" height="26" as="geometry"/>
                </mxCell>
                <UserObject label="Você está em: Processos &amp;gt; Edita 00/0000 &amp;gt; Chamada 0 &amp;gt; Evento de recurso" placeholders="1" name="Variable" id="YiHwfi0G9mCTUkcACJLo-24">
                    <mxCell style="text;html=1;strokeColor=none;fillColor=none;align=left;verticalAlign=middle;whiteSpace=wrap;overflow=hidden;" parent="YiHwfi0G9mCTUkcACJLo-21" vertex="1">
                        <mxGeometry x="20" y="132" width="530" height="20" as="geometry"/>
                    </mxCell>
                </UserObject>
                <mxCell id="YiHwfi0G9mCTUkcACJLo-25" style="edgeStyle=orthogonalEdgeStyle;rounded=0;orthogonalLoop=1;jettySize=auto;html=1;exitX=0.5;exitY=1;exitDx=0;exitDy=0;" parent="YiHwfi0G9mCTUkcACJLo-21" source="YiHwfi0G9mCTUkcACJLo-24" target="YiHwfi0G9mCTUkcACJLo-24" edge="1">
                    <mxGeometry relative="1" as="geometry"/>
                </mxCell>
                <mxCell id="YiHwfi0G9mCTUkcACJLo-26" value="Evento de recurso" style="text;strokeColor=none;fillColor=none;html=1;fontSize=24;fontStyle=1;verticalAlign=middle;align=left;" parent="YiHwfi0G9mCTUkcACJLo-21" vertex="1">
                    <mxGeometry x="20" y="160" width="100" height="40" as="geometry"/>
                </mxCell>
                <mxCell id="XxeCC5pC4PV6zOJk-9q2-44" value="" style="group" parent="YiHwfi0G9mCTUkcACJLo-21" vertex="1" connectable="0">
                    <mxGeometry x="20" y="200" width="310" height="80" as="geometry"/>
                </mxCell>
                <UserObject label="Inicio:" placeholders="1" name="Variable" id="XxeCC5pC4PV6zOJk-9q2-45">
                    <mxCell style="text;html=1;strokeColor=none;fillColor=none;align=left;verticalAlign=middle;whiteSpace=wrap;overflow=hidden;" parent="XxeCC5pC4PV6zOJk-9q2-44" vertex="1">
                        <mxGeometry width="310" height="20" as="geometry"/>
                    </mxCell>
                </UserObject>
                <UserObject label="Encerramento:" placeholders="1" name="Variable" id="XxeCC5pC4PV6zOJk-9q2-46">
                    <mxCell style="text;html=1;strokeColor=none;fillColor=none;align=left;verticalAlign=middle;whiteSpace=wrap;overflow=hidden;" parent="XxeCC5pC4PV6zOJk-9q2-44" vertex="1">
                        <mxGeometry y="19" width="310" height="20" as="geometry"/>
                    </mxCell>
                </UserObject>
                <UserObject label="Status:" placeholders="1" name="Variable" id="XxeCC5pC4PV6zOJk-9q2-47">
                    <mxCell style="text;html=1;strokeColor=none;fillColor=none;align=left;verticalAlign=middle;whiteSpace=wrap;overflow=hidden;" parent="XxeCC5pC4PV6zOJk-9q2-44" vertex="1">
                        <mxGeometry y="40" width="310" height="20" as="geometry"/>
                    </mxCell>
                </UserObject>
                <mxCell id="XxeCC5pC4PV6zOJk-9q2-49" value="" style="group" parent="YiHwfi0G9mCTUkcACJLo-21" vertex="1" connectable="0">
                    <mxGeometry x="344" y="200" width="310" height="80" as="geometry"/>
                </mxCell>
                <UserObject label="Inscrição:" placeholders="1" name="Variable" id="XxeCC5pC4PV6zOJk-9q2-50">
                    <mxCell style="text;html=1;strokeColor=none;fillColor=none;align=left;verticalAlign=middle;whiteSpace=wrap;overflow=hidden;" parent="XxeCC5pC4PV6zOJk-9q2-49" vertex="1">
                        <mxGeometry width="310" height="20" as="geometry"/>
                    </mxCell>
                </UserObject>
                <mxCell id="XxeCC5pC4PV6zOJk-9q2-53" value="Meus recursos" style="text;strokeColor=none;fillColor=none;html=1;fontSize=18;fontStyle=1;verticalAlign=middle;align=left;" parent="YiHwfi0G9mCTUkcACJLo-21" vertex="1">
                    <mxGeometry x="20" y="260" width="100" height="40" as="geometry"/>
                </mxCell>
                <mxCell id="XxeCC5pC4PV6zOJk-9q2-54" value="Lista de recursos" style="text;strokeColor=none;fillColor=none;html=1;fontSize=18;fontStyle=1;verticalAlign=middle;align=left;" parent="YiHwfi0G9mCTUkcACJLo-21" vertex="1">
                    <mxGeometry x="20" y="360" width="100" height="40" as="geometry"/>
                </mxCell>
                <mxCell id="XxeCC5pC4PV6zOJk-9q2-55" value="&lt;font style=&quot;font-size: 12px&quot;&gt;+ Adicionar&lt;/font&gt;" style="html=1;shadow=0;dashed=0;shape=mxgraph.bootstrap.rrect;rSize=5;strokeColor=#FFBC26;strokeWidth=1;fillColor=none;fontColor=#FFBC26;whiteSpace=wrap;align=center;verticalAlign=middle;spacingLeft=0;fontStyle=0;fontSize=16;spacing=5;rounded=0;aspect=fixed;" parent="YiHwfi0G9mCTUkcACJLo-21" vertex="1">
                    <mxGeometry x="550" y="280" width="76" height="33.77" as="geometry"/>
                </mxCell>
                <UserObject label="Sem recursos no momento" placeholders="1" name="Variable" id="XxeCC5pC4PV6zOJk-9q2-74">
                    <mxCell style="text;html=1;strokeColor=none;fillColor=none;align=left;verticalAlign=middle;whiteSpace=wrap;overflow=hidden;" parent="YiHwfi0G9mCTUkcACJLo-21" vertex="1">
                        <mxGeometry x="30" y="320" width="530" height="20" as="geometry"/>
                    </mxCell>
                </UserObject>
                <mxCell id="XxeCC5pC4PV6zOJk-9q2-76" value="" style="rounded=0;whiteSpace=wrap;html=1;fillColor=none;dashed=1;" parent="YiHwfi0G9mCTUkcACJLo-21" vertex="1">
                    <mxGeometry x="10" y="350" width="650" height="170" as="geometry"/>
                </mxCell>
                <mxCell id="XxeCC5pC4PV6zOJk-9q2-80" value="" style="shape=table;html=1;whiteSpace=wrap;startSize=0;container=1;collapsible=0;childLayout=tableLayout;rounded=0;fillColor=none;align=left;" parent="YiHwfi0G9mCTUkcACJLo-21" vertex="1">
                    <mxGeometry x="25" y="410" width="615" height="70" as="geometry"/>
                </mxCell>
                <mxCell id="XxeCC5pC4PV6zOJk-9q2-81" value="" style="shape=partialRectangle;html=1;whiteSpace=wrap;collapsible=0;dropTarget=0;pointerEvents=0;fillColor=none;top=0;left=0;bottom=0;right=0;points=[[0,0.5],[1,0.5]];portConstraint=eastwest;" parent="XxeCC5pC4PV6zOJk-9q2-80" vertex="1">
                    <mxGeometry width="615" height="23" as="geometry"/>
                </mxCell>
                <mxCell id="XxeCC5pC4PV6zOJk-9q2-82" value="Nome" style="shape=partialRectangle;html=1;whiteSpace=wrap;connectable=0;fillColor=none;top=0;left=0;bottom=0;right=0;overflow=hidden;" parent="XxeCC5pC4PV6zOJk-9q2-81" vertex="1">
                    <mxGeometry width="154" height="23" as="geometry"/>
                </mxCell>
                <mxCell id="XxeCC5pC4PV6zOJk-9q2-83" value="Data" style="shape=partialRectangle;html=1;whiteSpace=wrap;connectable=0;fillColor=none;top=0;left=0;bottom=0;right=0;overflow=hidden;" parent="XxeCC5pC4PV6zOJk-9q2-81" vertex="1">
                    <mxGeometry x="154" width="154" height="23" as="geometry"/>
                </mxCell>
                <mxCell id="XxeCC5pC4PV6zOJk-9q2-84" value="Titulo" style="shape=partialRectangle;html=1;whiteSpace=wrap;connectable=0;fillColor=none;top=0;left=0;bottom=0;right=0;overflow=hidden;" parent="XxeCC5pC4PV6zOJk-9q2-81" vertex="1">
                    <mxGeometry x="308" width="153" height="23" as="geometry"/>
                </mxCell>
                <mxCell id="XxeCC5pC4PV6zOJk-9q2-93" value="Options" style="shape=partialRectangle;html=1;whiteSpace=wrap;connectable=0;fillColor=none;top=0;left=0;bottom=0;right=0;overflow=hidden;" parent="XxeCC5pC4PV6zOJk-9q2-81" vertex="1">
                    <mxGeometry x="461" width="154" height="23" as="geometry"/>
                </mxCell>
                <mxCell id="XxeCC5pC4PV6zOJk-9q2-85" value="" style="shape=partialRectangle;html=1;whiteSpace=wrap;collapsible=0;dropTarget=0;pointerEvents=0;fillColor=none;top=0;left=0;bottom=0;right=0;points=[[0,0.5],[1,0.5]];portConstraint=eastwest;" parent="XxeCC5pC4PV6zOJk-9q2-80" vertex="1">
                    <mxGeometry y="23" width="615" height="24" as="geometry"/>
                </mxCell>
                <mxCell id="XxeCC5pC4PV6zOJk-9q2-86" value="Fulano" style="shape=partialRectangle;html=1;whiteSpace=wrap;connectable=0;fillColor=none;top=0;left=0;bottom=0;right=0;overflow=hidden;" parent="XxeCC5pC4PV6zOJk-9q2-85" vertex="1">
                    <mxGeometry width="154" height="24" as="geometry"/>
                </mxCell>
                <mxCell id="XxeCC5pC4PV6zOJk-9q2-87" value="10/10/2020" style="shape=partialRectangle;html=1;whiteSpace=wrap;connectable=0;fillColor=none;top=0;left=0;bottom=0;right=0;overflow=hidden;" parent="XxeCC5pC4PV6zOJk-9q2-85" vertex="1">
                    <mxGeometry x="154" width="154" height="24" as="geometry"/>
                </mxCell>
                <mxCell id="XxeCC5pC4PV6zOJk-9q2-88" value="Meh" style="shape=partialRectangle;html=1;whiteSpace=wrap;connectable=0;fillColor=none;top=0;left=0;bottom=0;right=0;overflow=hidden;" parent="XxeCC5pC4PV6zOJk-9q2-85" vertex="1">
                    <mxGeometry x="308" width="153" height="24" as="geometry"/>
                </mxCell>
                <mxCell id="XxeCC5pC4PV6zOJk-9q2-94" style="shape=partialRectangle;html=1;whiteSpace=wrap;connectable=0;fillColor=none;top=0;left=0;bottom=0;right=0;overflow=hidden;" parent="XxeCC5pC4PV6zOJk-9q2-85" vertex="1">
                    <mxGeometry x="461" width="154" height="24" as="geometry"/>
                </mxCell>
                <mxCell id="XxeCC5pC4PV6zOJk-9q2-89" value="" style="shape=partialRectangle;html=1;whiteSpace=wrap;collapsible=0;dropTarget=0;pointerEvents=0;fillColor=none;top=0;left=0;bottom=0;right=0;points=[[0,0.5],[1,0.5]];portConstraint=eastwest;" parent="XxeCC5pC4PV6zOJk-9q2-80" vertex="1">
                    <mxGeometry y="47" width="615" height="23" as="geometry"/>
                </mxCell>
                <mxCell id="XxeCC5pC4PV6zOJk-9q2-90" value="Ciclano" style="shape=partialRectangle;html=1;whiteSpace=wrap;connectable=0;fillColor=none;top=0;left=0;bottom=0;right=0;overflow=hidden;" parent="XxeCC5pC4PV6zOJk-9q2-89" vertex="1">
                    <mxGeometry width="154" height="23" as="geometry"/>
                </mxCell>
                <mxCell id="XxeCC5pC4PV6zOJk-9q2-91" value="11/10/2020" style="shape=partialRectangle;html=1;whiteSpace=wrap;connectable=0;fillColor=none;top=0;left=0;bottom=0;right=0;overflow=hidden;" parent="XxeCC5pC4PV6zOJk-9q2-89" vertex="1">
                    <mxGeometry x="154" width="154" height="23" as="geometry"/>
                </mxCell>
                <mxCell id="XxeCC5pC4PV6zOJk-9q2-92" value="Aff" style="shape=partialRectangle;html=1;whiteSpace=wrap;connectable=0;fillColor=none;top=0;left=0;bottom=0;right=0;overflow=hidden;" parent="XxeCC5pC4PV6zOJk-9q2-89" vertex="1">
                    <mxGeometry x="308" width="153" height="23" as="geometry"/>
                </mxCell>
                <mxCell id="XxeCC5pC4PV6zOJk-9q2-95" style="shape=partialRectangle;html=1;whiteSpace=wrap;connectable=0;fillColor=none;top=0;left=0;bottom=0;right=0;overflow=hidden;" parent="XxeCC5pC4PV6zOJk-9q2-89" vertex="1">
                    <mxGeometry x="461" width="154" height="23" as="geometry"/>
                </mxCell>
                <mxCell id="XxeCC5pC4PV6zOJk-9q2-98" value="" style="shape=mxgraph.signs.healthcare.eye;html=1;pointerEvents=1;fillColor=#000000;strokeColor=none;verticalLabelPosition=bottom;verticalAlign=top;align=center;rounded=0;aspect=fixed;" parent="YiHwfi0G9mCTUkcACJLo-21" vertex="1">
                    <mxGeometry x="606" y="439.44000000000005" width="20" height="11.12" as="geometry"/>
                </mxCell>
                <mxCell id="XxeCC5pC4PV6zOJk-9q2-100" value="" style="shape=mxgraph.signs.healthcare.eye;html=1;pointerEvents=1;fillColor=#000000;strokeColor=none;verticalLabelPosition=bottom;verticalAlign=top;align=center;rounded=0;aspect=fixed;" parent="YiHwfi0G9mCTUkcACJLo-21" vertex="1">
                    <mxGeometry x="606" y="460" width="20" height="11.12" as="geometry"/>
                </mxCell>
                <mxCell id="YiHwfi0G9mCTUkcACJLo-27" value="" style="strokeWidth=1;shadow=0;dashed=0;align=center;html=1;shape=mxgraph.mockup.containers.browserWindow;rSize=0;strokeColor2=#008cff;strokeColor3=#c4c4c4;mainText=,;recursiveResize=0;strokeColor=#4D4D4D;" parent="1" vertex="1">
                    <mxGeometry x="70" y="2280" width="670" height="570" as="geometry"/>
                </mxCell>
                <mxCell id="YiHwfi0G9mCTUkcACJLo-28" value="SEAD SPS" style="strokeWidth=1;shadow=0;dashed=0;align=center;html=1;shape=mxgraph.mockup.containers.anchor;fontSize=17;fontColor=#666666;align=left;" parent="YiHwfi0G9mCTUkcACJLo-27" vertex="1">
                    <mxGeometry x="60" y="12" width="110" height="26" as="geometry"/>
                </mxCell>
                <mxCell id="YiHwfi0G9mCTUkcACJLo-29" value="https://localhost/petition/create?inscriptionEvent_id=123456" style="strokeWidth=1;shadow=0;dashed=0;align=center;html=1;shape=mxgraph.mockup.containers.anchor;rSize=0;fontSize=17;fontColor=#666666;align=left;" parent="YiHwfi0G9mCTUkcACJLo-27" vertex="1">
                    <mxGeometry x="130" y="60" width="250" height="26" as="geometry"/>
                </mxCell>
                <UserObject label="Você está em: Processos &amp;gt; Edita 00/0000 &amp;gt; Chamada 0 &amp;gt; Evento de recurso &amp;gt; novo recurso" placeholders="1" name="Variable" id="YiHwfi0G9mCTUkcACJLo-30">
                    <mxCell style="text;html=1;strokeColor=none;fillColor=none;align=left;verticalAlign=middle;whiteSpace=wrap;overflow=hidden;" parent="YiHwfi0G9mCTUkcACJLo-27" vertex="1">
                        <mxGeometry x="20" y="132" width="530" height="20" as="geometry"/>
                    </mxCell>
                </UserObject>
                <mxCell id="YiHwfi0G9mCTUkcACJLo-31" style="edgeStyle=orthogonalEdgeStyle;rounded=0;orthogonalLoop=1;jettySize=auto;html=1;exitX=0.5;exitY=1;exitDx=0;exitDy=0;" parent="YiHwfi0G9mCTUkcACJLo-27" source="YiHwfi0G9mCTUkcACJLo-30" target="YiHwfi0G9mCTUkcACJLo-30" edge="1">
                    <mxGeometry relative="1" as="geometry"/>
                </mxCell>
                <mxCell id="YiHwfi0G9mCTUkcACJLo-32" value="Novo recurso" style="text;strokeColor=none;fillColor=none;html=1;fontSize=24;fontStyle=1;verticalAlign=middle;align=left;" parent="YiHwfi0G9mCTUkcACJLo-27" vertex="1">
                    <mxGeometry x="20" y="160" width="100" height="40" as="geometry"/>
                </mxCell>
                <mxCell id="8a3rIpHrWoQ-UX9wBh5C-22" value="" style="html=1;shadow=0;dashed=0;shape=mxgraph.bootstrap.rrect;rSize=5;strokeColor=#999999;fillColor=#ffffff;fontColor=#777777;whiteSpace=wrap;align=left;verticalAlign=middle;fontStyle=0;fontSize=14;spacing=15;" parent="YiHwfi0G9mCTUkcACJLo-27" vertex="1">
                    <mxGeometry x="20" y="310" width="610" height="40" as="geometry"/>
                </mxCell>
                <mxCell id="8a3rIpHrWoQ-UX9wBh5C-23" value="TITULO" style="text;strokeColor=none;fillColor=none;html=1;fontSize=16;fontStyle=1;verticalAlign=middle;align=left;" parent="YiHwfi0G9mCTUkcACJLo-27" vertex="1">
                    <mxGeometry x="20" y="280" width="100" height="40" as="geometry"/>
                </mxCell>
                <mxCell id="8a3rIpHrWoQ-UX9wBh5C-25" value="" style="rounded=1;arcSize=9;align=left;spacingLeft=5;html=1;strokeWidth=2;fontSize=12;strokeColor=#4D4D4D;" parent="YiHwfi0G9mCTUkcACJLo-27" vertex="1">
                    <mxGeometry x="20" y="390" width="610" height="115" as="geometry"/>
                </mxCell>
                <mxCell id="8a3rIpHrWoQ-UX9wBh5C-27" value="DESCRIÇÃO" style="text;strokeColor=none;fillColor=none;html=1;fontSize=16;fontStyle=1;verticalAlign=middle;align=left;" parent="YiHwfi0G9mCTUkcACJLo-27" vertex="1">
                    <mxGeometry x="20" y="350" width="100" height="40" as="geometry"/>
                </mxCell>
                <mxCell id="8a3rIpHrWoQ-UX9wBh5C-28" value="Criar" style="html=1;shadow=0;dashed=0;shape=mxgraph.bootstrap.rrect;rSize=5;strokeColor=#C73500;strokeWidth=1;fillColor=#fa6800;fontColor=#ffffff;whiteSpace=wrap;align=center;verticalAlign=middle;spacingLeft=0;fontStyle=0;fontSize=16;spacing=5;" parent="YiHwfi0G9mCTUkcACJLo-27" vertex="1">
                    <mxGeometry x="550" y="520" width="80" height="40" as="geometry"/>
                </mxCell>
                <mxCell id="NVfnNo_PiZ9AiSqMzfAL-1" value="Inscrição" style="text;strokeColor=none;fillColor=none;html=1;fontSize=16;fontStyle=1;verticalAlign=middle;align=left;" parent="YiHwfi0G9mCTUkcACJLo-27" vertex="1">
                    <mxGeometry x="20" y="200" width="100" height="40" as="geometry"/>
                </mxCell>
                <mxCell id="NVfnNo_PiZ9AiSqMzfAL-2" value="Escolha a inscrição" style="html=1;shadow=0;dashed=0;shape=mxgraph.bootstrap.rrect;rSize=5;strokeColor=#505050;strokeWidth=1;fillColor=#ffffff;fontColor=#777777;whiteSpace=wrap;align=left;verticalAlign=middle;fontStyle=0;fontSize=14;spacingRight=0;spacing=17;" parent="YiHwfi0G9mCTUkcACJLo-27" vertex="1">
                    <mxGeometry x="20" y="230" width="610" height="40" as="geometry"/>
                </mxCell>
                <mxCell id="NVfnNo_PiZ9AiSqMzfAL-3" value="" style="shape=triangle;direction=south;fillColor=#495057;strokeColor=none;perimeter=none;" parent="NVfnNo_PiZ9AiSqMzfAL-2" vertex="1">
                    <mxGeometry x="1" y="0.5" width="10" height="5" relative="1" as="geometry">
                        <mxPoint x="-17" y="-2.5" as="offset"/>
                    </mxGeometry>
                </mxCell>
                <mxCell id="YiHwfi0G9mCTUkcACJLo-33" value="" style="strokeWidth=1;shadow=0;dashed=0;align=center;html=1;shape=mxgraph.mockup.containers.browserWindow;rSize=0;strokeColor=#666666;strokeColor2=#008cff;strokeColor3=#c4c4c4;mainText=,;recursiveResize=0;" parent="1" vertex="1">
                    <mxGeometry x="70" y="3760" width="670" height="420" as="geometry"/>
                </mxCell>
                <mxCell id="YiHwfi0G9mCTUkcACJLo-34" value="SEAD SPS" style="strokeWidth=1;shadow=0;dashed=0;align=center;html=1;shape=mxgraph.mockup.containers.anchor;fontSize=17;fontColor=#666666;align=left;" parent="YiHwfi0G9mCTUkcACJLo-33" vertex="1">
                    <mxGeometry x="60" y="12" width="110" height="26" as="geometry"/>
                </mxCell>
                <mxCell id="YiHwfi0G9mCTUkcACJLo-35" value="https://localhost/petition/delete/123456" style="strokeWidth=1;shadow=0;dashed=0;align=center;html=1;shape=mxgraph.mockup.containers.anchor;rSize=0;fontSize=17;fontColor=#666666;align=left;" parent="YiHwfi0G9mCTUkcACJLo-33" vertex="1">
                    <mxGeometry x="130" y="60" width="250" height="26" as="geometry"/>
                </mxCell>
                <UserObject label="Você está em: Processos &amp;gt; Edita 00/0000 &amp;gt; Chamada 0 &amp;gt; Evento de recurso" placeholders="1" name="Variable" id="YiHwfi0G9mCTUkcACJLo-36">
                    <mxCell style="text;html=1;strokeColor=none;fillColor=none;align=left;verticalAlign=middle;whiteSpace=wrap;overflow=hidden;" parent="YiHwfi0G9mCTUkcACJLo-33" vertex="1">
                        <mxGeometry x="20" y="132" width="530" height="20" as="geometry"/>
                    </mxCell>
                </UserObject>
                <mxCell id="YiHwfi0G9mCTUkcACJLo-37" style="edgeStyle=orthogonalEdgeStyle;rounded=0;orthogonalLoop=1;jettySize=auto;html=1;exitX=0.5;exitY=1;exitDx=0;exitDy=0;" parent="YiHwfi0G9mCTUkcACJLo-33" source="YiHwfi0G9mCTUkcACJLo-36" target="YiHwfi0G9mCTUkcACJLo-36" edge="1">
                    <mxGeometry relative="1" as="geometry"/>
                </mxCell>
                <mxCell id="YiHwfi0G9mCTUkcACJLo-38" value="Excluir recurso" style="text;strokeColor=none;fillColor=none;html=1;fontSize=24;fontStyle=1;verticalAlign=middle;align=left;" parent="YiHwfi0G9mCTUkcACJLo-33" vertex="1">
                    <mxGeometry x="20" y="160" width="100" height="40" as="geometry"/>
                </mxCell>
                <mxCell id="8a3rIpHrWoQ-UX9wBh5C-37" value="Excluir" style="html=1;shadow=0;dashed=0;shape=mxgraph.bootstrap.rrect;rSize=5;strokeColor=#C73500;strokeWidth=1;fillColor=#fa6800;fontColor=#ffffff;whiteSpace=wrap;align=center;verticalAlign=middle;spacingLeft=0;fontStyle=0;fontSize=16;spacing=5;" parent="YiHwfi0G9mCTUkcACJLo-33" vertex="1">
                    <mxGeometry x="280" y="350" width="80" height="40" as="geometry"/>
                </mxCell>
                <mxCell id="8a3rIpHrWoQ-UX9wBh5C-43" value="&lt;font color=&quot;#ffb570&quot;&gt;Cancelar&lt;/font&gt;" style="html=1;shadow=0;dashed=0;shape=mxgraph.bootstrap.rrect;rSize=5;strokeWidth=1;fillColor=none;fontColor=#DB2843;whiteSpace=wrap;align=center;verticalAlign=middle;spacingLeft=0;fontStyle=0;fontSize=16;spacing=5;strokeColor=#FFB570;" parent="YiHwfi0G9mCTUkcACJLo-33" vertex="1">
                    <mxGeometry x="180" y="350" width="80" height="40" as="geometry"/>
                </mxCell>
                <UserObject label="Id:" placeholders="1" name="Variable" id="8a3rIpHrWoQ-UX9wBh5C-39">
                    <mxCell style="text;html=1;strokeColor=none;fillColor=none;align=left;verticalAlign=middle;whiteSpace=wrap;overflow=hidden;" parent="YiHwfi0G9mCTUkcACJLo-33" vertex="1">
                        <mxGeometry x="20" y="200" width="530" height="20" as="geometry"/>
                    </mxCell>
                </UserObject>
                <UserObject label="Processo:" placeholders="1" name="Variable" id="8a3rIpHrWoQ-UX9wBh5C-40">
                    <mxCell style="text;html=1;strokeColor=none;fillColor=none;align=left;verticalAlign=middle;whiteSpace=wrap;overflow=hidden;" parent="YiHwfi0G9mCTUkcACJLo-33" vertex="1">
                        <mxGeometry x="20" y="220" width="530" height="20" as="geometry"/>
                    </mxCell>
                </UserObject>
                <UserObject label="Evento de recurso:" placeholders="1" name="Variable" id="8a3rIpHrWoQ-UX9wBh5C-42">
                    <mxCell style="text;html=1;strokeColor=none;fillColor=none;align=left;verticalAlign=middle;whiteSpace=wrap;overflow=hidden;" parent="YiHwfi0G9mCTUkcACJLo-33" vertex="1">
                        <mxGeometry x="20" y="240" width="530" height="20" as="geometry"/>
                    </mxCell>
                </UserObject>
                <UserObject label="Titulo:" placeholders="1" name="Variable" id="8a3rIpHrWoQ-UX9wBh5C-44">
                    <mxCell style="text;html=1;strokeColor=none;fillColor=none;align=left;verticalAlign=middle;whiteSpace=wrap;overflow=hidden;" parent="YiHwfi0G9mCTUkcACJLo-33" vertex="1">
                        <mxGeometry x="20" y="260" width="530" height="20" as="geometry"/>
                    </mxCell>
                </UserObject>
                <UserObject label="Descrição:" placeholders="1" name="Variable" id="8a3rIpHrWoQ-UX9wBh5C-45">
                    <mxCell style="text;html=1;strokeColor=none;fillColor=none;align=left;verticalAlign=middle;whiteSpace=wrap;overflow=hidden;" parent="YiHwfi0G9mCTUkcACJLo-33" vertex="1">
                        <mxGeometry x="20" y="280" width="530" height="20" as="geometry"/>
                    </mxCell>
                </UserObject>
                <UserObject label="Status:" placeholders="1" name="Variable" id="8a3rIpHrWoQ-UX9wBh5C-46">
                    <mxCell style="text;html=1;strokeColor=none;fillColor=none;align=left;verticalAlign=middle;whiteSpace=wrap;overflow=hidden;" parent="YiHwfi0G9mCTUkcACJLo-33" vertex="1">
                        <mxGeometry x="20" y="300" width="530" height="20" as="geometry"/>
                    </mxCell>
                </UserObject>
                <UserObject label="Justificativa:" placeholders="1" name="Variable" id="8a3rIpHrWoQ-UX9wBh5C-47">
                    <mxCell style="text;html=1;strokeColor=none;fillColor=none;align=left;verticalAlign=middle;whiteSpace=wrap;overflow=hidden;" parent="YiHwfi0G9mCTUkcACJLo-33" vertex="1">
                        <mxGeometry x="20" y="320" width="530" height="20" as="geometry"/>
                    </mxCell>
                </UserObject>
                <mxCell id="XxeCC5pC4PV6zOJk-9q2-79" style="edgeStyle=orthogonalEdgeStyle;rounded=0;orthogonalLoop=1;jettySize=auto;html=1;" parent="1" source="XxeCC5pC4PV6zOJk-9q2-78" target="XxeCC5pC4PV6zOJk-9q2-76" edge="1">
                    <mxGeometry relative="1" as="geometry"/>
                </mxCell>
                <mxCell id="XxeCC5pC4PV6zOJk-9q2-78" value="somente para quem&lt;br&gt;tem appeal_list" style="strokeWidth=1;shadow=0;dashed=0;align=center;html=1;shape=mxgraph.mockup.text.stickyNote2;fontColor=#666666;mainText=;fontSize=17;whiteSpace=wrap;fillColor=#ffffcc;strokeColor=#F62E00;rounded=0;" parent="1" vertex="1">
                    <mxGeometry x="827" y="2100" width="233" height="80" as="geometry"/>
                </mxCell>
                <mxCell id="8a3rIpHrWoQ-UX9wBh5C-48" value="" style="strokeWidth=1;shadow=0;dashed=0;align=center;html=1;shape=mxgraph.mockup.containers.browserWindow;rSize=0;strokeColor2=#008cff;strokeColor3=#c4c4c4;mainText=,;recursiveResize=0;strokeColor=#4D4D4D;" parent="1" vertex="1">
                    <mxGeometry x="70" y="2880" width="670" height="840" as="geometry"/>
                </mxCell>
                <mxCell id="8aOphWSxsC91_Dm5oloD-1" value="" style="rounded=0;whiteSpace=wrap;html=1;fillColor=none;dashed=1;" parent="8a3rIpHrWoQ-UX9wBh5C-48" vertex="1">
                    <mxGeometry x="10" y="540" width="640" height="240" as="geometry"/>
                </mxCell>
                <mxCell id="8a3rIpHrWoQ-UX9wBh5C-49" value="SEAD SPS" style="strokeWidth=1;shadow=0;dashed=0;align=center;html=1;shape=mxgraph.mockup.containers.anchor;fontSize=17;fontColor=#666666;align=left;" parent="8a3rIpHrWoQ-UX9wBh5C-48" vertex="1">
                    <mxGeometry x="60" y="12" width="110" height="26" as="geometry"/>
                </mxCell>
                <mxCell id="8a3rIpHrWoQ-UX9wBh5C-50" value="https://localhost/petition/read/123456" style="strokeWidth=1;shadow=0;dashed=0;align=center;html=1;shape=mxgraph.mockup.containers.anchor;rSize=0;fontSize=17;fontColor=#666666;align=left;" parent="8a3rIpHrWoQ-UX9wBh5C-48" vertex="1">
                    <mxGeometry x="130" y="60" width="250" height="26" as="geometry"/>
                </mxCell>
                <UserObject label="Você está em: Processos &amp;gt; Edita 00/0000 &amp;gt; Chamada 0 &amp;gt; Evento de recurso" placeholders="1" name="Variable" id="8a3rIpHrWoQ-UX9wBh5C-51">
                    <mxCell style="text;html=1;strokeColor=none;fillColor=none;align=left;verticalAlign=middle;whiteSpace=wrap;overflow=hidden;" parent="8a3rIpHrWoQ-UX9wBh5C-48" vertex="1">
                        <mxGeometry x="20" y="132" width="530" height="20" as="geometry"/>
                    </mxCell>
                </UserObject>
                <mxCell id="8a3rIpHrWoQ-UX9wBh5C-52" style="edgeStyle=orthogonalEdgeStyle;rounded=0;orthogonalLoop=1;jettySize=auto;html=1;exitX=0.5;exitY=1;exitDx=0;exitDy=0;" parent="8a3rIpHrWoQ-UX9wBh5C-48" source="8a3rIpHrWoQ-UX9wBh5C-51" target="8a3rIpHrWoQ-UX9wBh5C-51" edge="1">
                    <mxGeometry relative="1" as="geometry"/>
                </mxCell>
                <mxCell id="8a3rIpHrWoQ-UX9wBh5C-53" value="Recurso" style="text;strokeColor=none;fillColor=none;html=1;fontSize=24;fontStyle=1;verticalAlign=middle;align=left;" parent="8a3rIpHrWoQ-UX9wBh5C-48" vertex="1">
                    <mxGeometry x="20" y="180" width="100" height="40" as="geometry"/>
                </mxCell>
                <mxCell id="8a3rIpHrWoQ-UX9wBh5C-54" value="" style="html=1;shadow=0;dashed=0;shape=mxgraph.bootstrap.rrect;rSize=5;strokeColor=#999999;fontColor=#777777;whiteSpace=wrap;align=left;verticalAlign=middle;fontStyle=0;fontSize=14;spacing=15;fillColor=#E8E8E8;" parent="8a3rIpHrWoQ-UX9wBh5C-48" vertex="1">
                    <mxGeometry x="25" y="330" width="610" height="40" as="geometry"/>
                </mxCell>
                <mxCell id="8a3rIpHrWoQ-UX9wBh5C-55" value="TITULO" style="text;strokeColor=none;fillColor=none;html=1;fontSize=16;fontStyle=1;verticalAlign=middle;align=left;" parent="8a3rIpHrWoQ-UX9wBh5C-48" vertex="1">
                    <mxGeometry x="25" y="300" width="100" height="40" as="geometry"/>
                </mxCell>
                <mxCell id="8a3rIpHrWoQ-UX9wBh5C-56" value="" style="rounded=1;arcSize=9;align=left;spacingLeft=5;html=1;strokeWidth=2;fontSize=12;strokeColor=#4D4D4D;fillColor=#E8E8E8;" parent="8a3rIpHrWoQ-UX9wBh5C-48" vertex="1">
                    <mxGeometry x="25" y="410" width="610" height="115" as="geometry"/>
                </mxCell>
                <mxCell id="8a3rIpHrWoQ-UX9wBh5C-57" value="DESCRIÇÃO" style="text;strokeColor=none;fillColor=none;html=1;fontSize=16;fontStyle=1;verticalAlign=middle;align=left;" parent="8a3rIpHrWoQ-UX9wBh5C-48" vertex="1">
                    <mxGeometry x="25" y="380" width="100" height="40" as="geometry"/>
                </mxCell>
                <mxCell id="8a3rIpHrWoQ-UX9wBh5C-60" value="" style="html=1;shadow=0;dashed=0;shape=mxgraph.bootstrap.rrect;rSize=5;strokeColor=#999999;fontColor=#777777;whiteSpace=wrap;align=left;verticalAlign=middle;fontStyle=0;fontSize=14;spacing=15;fillColor=#E8E8E8;" parent="8a3rIpHrWoQ-UX9wBh5C-48" vertex="1">
                    <mxGeometry x="25" y="570" width="610" height="40" as="geometry"/>
                </mxCell>
                <mxCell id="8a3rIpHrWoQ-UX9wBh5C-61" value="STATUS" style="text;strokeColor=none;fillColor=none;html=1;fontSize=16;fontStyle=1;verticalAlign=middle;align=left;" parent="8a3rIpHrWoQ-UX9wBh5C-48" vertex="1">
                    <mxGeometry x="25" y="540" width="100" height="40" as="geometry"/>
                </mxCell>
                <mxCell id="8a3rIpHrWoQ-UX9wBh5C-62" value="" style="rounded=1;arcSize=9;align=left;spacingLeft=5;html=1;strokeWidth=2;fontSize=12;strokeColor=#4D4D4D;fillColor=#E8E8E8;" parent="8a3rIpHrWoQ-UX9wBh5C-48" vertex="1">
                    <mxGeometry x="25" y="650" width="610" height="115" as="geometry"/>
                </mxCell>
                <mxCell id="8a3rIpHrWoQ-UX9wBh5C-63" value="JUSTIFICATIVA" style="text;strokeColor=none;fillColor=none;html=1;fontSize=16;fontStyle=1;verticalAlign=middle;align=left;" parent="8a3rIpHrWoQ-UX9wBh5C-48" vertex="1">
                    <mxGeometry x="25" y="620" width="100" height="40" as="geometry"/>
                </mxCell>
                <mxCell id="8a3rIpHrWoQ-UX9wBh5C-92" value="&lt;font color=&quot;#ffb570&quot;&gt;Voltar&lt;/font&gt;" style="html=1;shadow=0;dashed=0;shape=mxgraph.bootstrap.rrect;rSize=5;strokeWidth=1;fillColor=none;fontColor=#DB2843;whiteSpace=wrap;align=center;verticalAlign=middle;spacingLeft=0;fontStyle=0;fontSize=16;spacing=5;strokeColor=#FFB570;" parent="8a3rIpHrWoQ-UX9wBh5C-48" vertex="1">
                    <mxGeometry x="555" y="780" width="80" height="40" as="geometry"/>
                </mxCell>
                <mxCell id="NVfnNo_PiZ9AiSqMzfAL-7" value="Inscrição" style="text;strokeColor=none;fillColor=none;html=1;fontSize=16;fontStyle=1;verticalAlign=middle;align=left;" parent="8a3rIpHrWoQ-UX9wBh5C-48" vertex="1">
                    <mxGeometry x="25" y="220" width="100" height="40" as="geometry"/>
                </mxCell>
                <mxCell id="NVfnNo_PiZ9AiSqMzfAL-8" value="inscrição blá." style="html=1;shadow=0;dashed=0;shape=mxgraph.bootstrap.rrect;rSize=5;strokeColor=#505050;strokeWidth=1;fontColor=#777777;whiteSpace=wrap;align=left;verticalAlign=middle;fontStyle=0;fontSize=14;spacingRight=0;spacing=17;fillColor=#E8E8E8;" parent="8a3rIpHrWoQ-UX9wBh5C-48" vertex="1">
                    <mxGeometry x="25" y="250" width="610" height="40" as="geometry"/>
                </mxCell>
                <mxCell id="NVfnNo_PiZ9AiSqMzfAL-9" value="" style="shape=triangle;direction=south;fillColor=#495057;strokeColor=none;perimeter=none;" parent="NVfnNo_PiZ9AiSqMzfAL-8" vertex="1">
                    <mxGeometry x="1" y="0.5" width="10" height="5" relative="1" as="geometry">
                        <mxPoint x="-17" y="-2.5" as="offset"/>
                    </mxGeometry>
                </mxCell>
                <mxCell id="8a3rIpHrWoQ-UX9wBh5C-94" style="edgeStyle=orthogonalEdgeStyle;rounded=0;orthogonalLoop=1;jettySize=auto;html=1;" parent="1" source="8a3rIpHrWoQ-UX9wBh5C-93" target="K-W6jXl_5-GQBgab59d4-57" edge="1">
                    <mxGeometry relative="1" as="geometry">
                        <Array as="points">
                            <mxPoint x="780" y="710"/>
                            <mxPoint x="780" y="760"/>
                        </Array>
                    </mxGeometry>
                </mxCell>
                <mxCell id="8a3rIpHrWoQ-UX9wBh5C-93" value="Apenas eventos de inscrição da mesma chamada." style="strokeWidth=1;shadow=0;dashed=0;align=center;html=1;shape=mxgraph.mockup.text.stickyNote2;fontColor=#666666;mainText=;fontSize=17;whiteSpace=wrap;fillColor=#ffffcc;strokeColor=#F62E00;rounded=0;" parent="1" vertex="1">
                    <mxGeometry x="860" y="680" width="250" height="60" as="geometry"/>
                </mxCell>
                <mxCell id="8a3rIpHrWoQ-UX9wBh5C-95" value="" style="strokeWidth=1;shadow=0;dashed=0;align=center;html=1;shape=mxgraph.mockup.containers.browserWindow;rSize=0;strokeColor2=#008cff;strokeColor3=#c4c4c4;mainText=,;recursiveResize=0;strokeColor=#4D4D4D;" parent="1" vertex="1">
                    <mxGeometry x="70" y="4230" width="670" height="890" as="geometry"/>
                </mxCell>
                <mxCell id="8a3rIpHrWoQ-UX9wBh5C-96" value="SEAD SPS" style="strokeWidth=1;shadow=0;dashed=0;align=center;html=1;shape=mxgraph.mockup.containers.anchor;fontSize=17;fontColor=#666666;align=left;" parent="8a3rIpHrWoQ-UX9wBh5C-95" vertex="1">
                    <mxGeometry x="60" y="12" width="110" height="26" as="geometry"/>
                </mxCell>
                <mxCell id="8a3rIpHrWoQ-UX9wBh5C-97" value="https://localhost/petition-reply/create?appeal_id=123456" style="strokeWidth=1;shadow=0;dashed=0;align=center;html=1;shape=mxgraph.mockup.containers.anchor;rSize=0;fontSize=17;fontColor=#666666;align=left;" parent="8a3rIpHrWoQ-UX9wBh5C-95" vertex="1">
                    <mxGeometry x="130" y="60" width="250" height="26" as="geometry"/>
                </mxCell>
                <UserObject label="Você está em: Processos &amp;gt; Edita 00/0000 &amp;gt; Chamada 0 &amp;gt; Evento de recurso &amp;gt; recurso &amp;gt; responder" placeholders="1" name="Variable" id="8a3rIpHrWoQ-UX9wBh5C-98">
                    <mxCell style="text;html=1;strokeColor=none;fillColor=none;align=left;verticalAlign=middle;whiteSpace=wrap;overflow=hidden;" parent="8a3rIpHrWoQ-UX9wBh5C-95" vertex="1">
                        <mxGeometry x="20" y="132" width="560" height="20" as="geometry"/>
                    </mxCell>
                </UserObject>
                <mxCell id="8a3rIpHrWoQ-UX9wBh5C-99" style="edgeStyle=orthogonalEdgeStyle;rounded=0;orthogonalLoop=1;jettySize=auto;html=1;exitX=0.5;exitY=1;exitDx=0;exitDy=0;" parent="8a3rIpHrWoQ-UX9wBh5C-95" source="8a3rIpHrWoQ-UX9wBh5C-98" target="8a3rIpHrWoQ-UX9wBh5C-98" edge="1">
                    <mxGeometry relative="1" as="geometry"/>
                </mxCell>
                <mxCell id="8a3rIpHrWoQ-UX9wBh5C-100" value="Responder recurso" style="text;strokeColor=none;fillColor=none;html=1;fontSize=24;fontStyle=1;verticalAlign=middle;align=left;" parent="8a3rIpHrWoQ-UX9wBh5C-95" vertex="1">
                    <mxGeometry x="20" y="180" width="100" height="40" as="geometry"/>
                </mxCell>
                <mxCell id="8a3rIpHrWoQ-UX9wBh5C-101" value="" style="html=1;shadow=0;dashed=0;shape=mxgraph.bootstrap.rrect;rSize=5;strokeColor=#999999;fontColor=#777777;whiteSpace=wrap;align=left;verticalAlign=middle;fontStyle=0;fontSize=14;spacing=15;fillColor=#E8E8E8;" parent="8a3rIpHrWoQ-UX9wBh5C-95" vertex="1">
                    <mxGeometry x="20" y="350" width="610" height="40" as="geometry"/>
                </mxCell>
                <mxCell id="8a3rIpHrWoQ-UX9wBh5C-102" value="TITULO" style="text;strokeColor=none;fillColor=none;html=1;fontSize=16;fontStyle=1;verticalAlign=middle;align=left;" parent="8a3rIpHrWoQ-UX9wBh5C-95" vertex="1">
                    <mxGeometry x="20" y="320" width="100" height="40" as="geometry"/>
                </mxCell>
                <mxCell id="8a3rIpHrWoQ-UX9wBh5C-103" value="" style="rounded=1;arcSize=9;align=left;spacingLeft=5;html=1;strokeWidth=2;fontSize=12;strokeColor=#4D4D4D;fillColor=#E8E8E8;" parent="8a3rIpHrWoQ-UX9wBh5C-95" vertex="1">
                    <mxGeometry x="20" y="430" width="610" height="115" as="geometry"/>
                </mxCell>
                <mxCell id="8a3rIpHrWoQ-UX9wBh5C-104" value="DESCRIÇÃO" style="text;strokeColor=none;fillColor=none;html=1;fontSize=16;fontStyle=1;verticalAlign=middle;align=left;" parent="8a3rIpHrWoQ-UX9wBh5C-95" vertex="1">
                    <mxGeometry x="20" y="400" width="100" height="40" as="geometry"/>
                </mxCell>
                <mxCell id="8a3rIpHrWoQ-UX9wBh5C-106" value="STATUS" style="text;strokeColor=none;fillColor=none;html=1;fontSize=16;fontStyle=1;verticalAlign=middle;align=left;" parent="8a3rIpHrWoQ-UX9wBh5C-95" vertex="1">
                    <mxGeometry x="20" y="560" width="100" height="40" as="geometry"/>
                </mxCell>
                <mxCell id="8a3rIpHrWoQ-UX9wBh5C-107" value="" style="rounded=1;arcSize=9;align=left;spacingLeft=5;html=1;strokeWidth=2;fontSize=12;strokeColor=#4D4D4D;fillColor=#FFFFFF;" parent="8a3rIpHrWoQ-UX9wBh5C-95" vertex="1">
                    <mxGeometry x="20" y="670" width="610" height="115" as="geometry"/>
                </mxCell>
                <mxCell id="8a3rIpHrWoQ-UX9wBh5C-108" value="JUSTIFICATIVA" style="text;strokeColor=none;fillColor=none;html=1;fontSize=16;fontStyle=1;verticalAlign=middle;align=left;" parent="8a3rIpHrWoQ-UX9wBh5C-95" vertex="1">
                    <mxGeometry x="20" y="640" width="100" height="40" as="geometry"/>
                </mxCell>
                <mxCell id="8a3rIpHrWoQ-UX9wBh5C-109" value="&lt;font color=&quot;#ffb570&quot;&gt;Voltar&lt;/font&gt;" style="html=1;shadow=0;dashed=0;shape=mxgraph.bootstrap.rrect;rSize=5;strokeWidth=1;fillColor=none;fontColor=#DB2843;whiteSpace=wrap;align=center;verticalAlign=middle;spacingLeft=0;fontStyle=0;fontSize=16;spacing=5;strokeColor=#FFB570;" parent="8a3rIpHrWoQ-UX9wBh5C-95" vertex="1">
                    <mxGeometry x="550" y="800" width="80" height="40" as="geometry"/>
                </mxCell>
                <mxCell id="8a3rIpHrWoQ-UX9wBh5C-110" value="Pendente" style="html=1;shadow=0;dashed=0;shape=mxgraph.bootstrap.rrect;rSize=5;strokeColor=#505050;strokeWidth=1;fillColor=#ffffff;fontColor=#777777;whiteSpace=wrap;align=left;verticalAlign=middle;fontStyle=0;fontSize=14;spacingRight=0;spacing=17;" parent="8a3rIpHrWoQ-UX9wBh5C-95" vertex="1">
                    <mxGeometry x="20" y="590" width="610" height="40" as="geometry"/>
                </mxCell>
                <mxCell id="8a3rIpHrWoQ-UX9wBh5C-111" value="" style="shape=triangle;direction=south;fillColor=#495057;strokeColor=none;perimeter=none;" parent="8a3rIpHrWoQ-UX9wBh5C-110" vertex="1">
                    <mxGeometry x="1" y="0.5" width="10" height="5" relative="1" as="geometry">
                        <mxPoint x="-17" y="-2.5" as="offset"/>
                    </mxGeometry>
                </mxCell>
                <mxCell id="8a3rIpHrWoQ-UX9wBh5C-112" value="Responder" style="html=1;shadow=0;dashed=0;shape=mxgraph.bootstrap.rrect;rSize=5;strokeColor=#C73500;strokeWidth=1;fillColor=#fa6800;fontColor=#ffffff;whiteSpace=wrap;align=center;verticalAlign=middle;spacingLeft=0;fontStyle=0;fontSize=16;spacing=5;" parent="8a3rIpHrWoQ-UX9wBh5C-95" vertex="1">
                    <mxGeometry x="430" y="800" width="100" height="40" as="geometry"/>
                </mxCell>
                <mxCell id="NVfnNo_PiZ9AiSqMzfAL-10" value="Inscrição" style="text;strokeColor=none;fillColor=none;html=1;fontSize=16;fontStyle=1;verticalAlign=middle;align=left;" parent="8a3rIpHrWoQ-UX9wBh5C-95" vertex="1">
                    <mxGeometry x="20" y="230" width="100" height="40" as="geometry"/>
                </mxCell>
                <mxCell id="NVfnNo_PiZ9AiSqMzfAL-11" value="inscrição blá." style="html=1;shadow=0;dashed=0;shape=mxgraph.bootstrap.rrect;rSize=5;strokeColor=#505050;strokeWidth=1;fontColor=#777777;whiteSpace=wrap;align=left;verticalAlign=middle;fontStyle=0;fontSize=14;spacingRight=0;spacing=17;fillColor=#E8E8E8;" parent="8a3rIpHrWoQ-UX9wBh5C-95" vertex="1">
                    <mxGeometry x="20" y="260" width="610" height="40" as="geometry"/>
                </mxCell>
                <mxCell id="NVfnNo_PiZ9AiSqMzfAL-12" value="" style="shape=triangle;direction=south;fillColor=#495057;strokeColor=none;perimeter=none;" parent="NVfnNo_PiZ9AiSqMzfAL-11" vertex="1">
                    <mxGeometry x="1" y="0.5" width="10" height="5" relative="1" as="geometry">
                        <mxPoint x="-17" y="-2.5" as="offset"/>
                    </mxGeometry>
                </mxCell>
                <mxCell id="8aOphWSxsC91_Dm5oloD-3" style="edgeStyle=orthogonalEdgeStyle;rounded=0;orthogonalLoop=1;jettySize=auto;html=1;" parent="1" source="8aOphWSxsC91_Dm5oloD-2" target="8aOphWSxsC91_Dm5oloD-1" edge="1">
                    <mxGeometry relative="1" as="geometry"/>
                </mxCell>
                <mxCell id="8aOphWSxsC91_Dm5oloD-2" value="Se houver resposta&lt;br&gt;ou..." style="strokeWidth=1;shadow=0;dashed=0;align=center;html=1;shape=mxgraph.mockup.text.stickyNote2;fontColor=#666666;mainText=;fontSize=17;whiteSpace=wrap;fillColor=#ffffcc;strokeColor=#F62E00;rounded=0;" parent="1" vertex="1">
                    <mxGeometry x="860" y="3350" width="233" height="80" as="geometry"/>
                </mxCell>
                <mxCell id="8aOphWSxsC91_Dm5oloD-26" value="Responder" style="html=1;shadow=0;dashed=0;shape=mxgraph.bootstrap.rrect;rSize=5;strokeColor=#C73500;strokeWidth=1;fillColor=#fa6800;fontColor=#ffffff;whiteSpace=wrap;align=center;verticalAlign=middle;spacingLeft=0;fontStyle=0;fontSize=16;spacing=5;" parent="1" vertex="1">
                    <mxGeometry x="910" y="3450" width="110" height="40" as="geometry"/>
                </mxCell>
                <mxCell id="DWj55nzPiMlnKqb-zzvA-1" value="" style="strokeWidth=1;shadow=0;dashed=0;align=center;html=1;shape=mxgraph.mockup.containers.browserWindow;rSize=0;strokeColor=#666666;strokeColor2=#008cff;strokeColor3=#c4c4c4;mainText=,;recursiveResize=0;" parent="1" vertex="1">
                    <mxGeometry x="780" y="40" width="670" height="420" as="geometry"/>
                </mxCell>
                <mxCell id="DWj55nzPiMlnKqb-zzvA-2" value="SEAD SPS" style="strokeWidth=1;shadow=0;dashed=0;align=center;html=1;shape=mxgraph.mockup.containers.anchor;fontSize=17;fontColor=#666666;align=left;" parent="DWj55nzPiMlnKqb-zzvA-1" vertex="1">
                    <mxGeometry x="60" y="12" width="110" height="26" as="geometry"/>
                </mxCell>
                <mxCell id="DWj55nzPiMlnKqb-zzvA-3" value="https://localhost/calendar/read/12345" style="strokeWidth=1;shadow=0;dashed=0;align=center;html=1;shape=mxgraph.mockup.containers.anchor;rSize=0;fontSize=17;fontColor=#666666;align=left;" parent="DWj55nzPiMlnKqb-zzvA-1" vertex="1">
                    <mxGeometry x="130" y="60" width="250" height="26" as="geometry"/>
                </mxCell>
                <UserObject label="Você está em: Processos &amp;gt; Edita 00/0000 &amp;gt; Chamada 0 &amp;gt; Calendário (Nome)" placeholders="1" name="Variable" id="DWj55nzPiMlnKqb-zzvA-4">
                    <mxCell style="text;html=1;strokeColor=none;fillColor=none;align=left;verticalAlign=middle;whiteSpace=wrap;overflow=hidden;" parent="DWj55nzPiMlnKqb-zzvA-1" vertex="1">
                        <mxGeometry x="20" y="132" width="530" height="20" as="geometry"/>
                    </mxCell>
                </UserObject>
                <mxCell id="DWj55nzPiMlnKqb-zzvA-5" style="edgeStyle=orthogonalEdgeStyle;rounded=0;orthogonalLoop=1;jettySize=auto;html=1;exitX=0.5;exitY=1;exitDx=0;exitDy=0;" parent="DWj55nzPiMlnKqb-zzvA-1" source="DWj55nzPiMlnKqb-zzvA-4" target="DWj55nzPiMlnKqb-zzvA-4" edge="1">
                    <mxGeometry relative="1" as="geometry"/>
                </mxCell>
                <mxCell id="DWj55nzPiMlnKqb-zzvA-6" value="Calendário (Nome)" style="text;strokeColor=none;fillColor=none;html=1;fontSize=24;fontStyle=1;verticalAlign=middle;align=left;" parent="DWj55nzPiMlnKqb-zzvA-1" vertex="1">
                    <mxGeometry x="20" y="160" width="100" height="40" as="geometry"/>
                </mxCell>
                <mxCell id="DWj55nzPiMlnKqb-zzvA-7" value="" style="group" parent="DWj55nzPiMlnKqb-zzvA-1" vertex="1" connectable="0">
                    <mxGeometry x="20" y="210" width="530" height="80" as="geometry"/>
                </mxCell>
                <UserObject label="Nome:" placeholders="1" name="Variable" id="DWj55nzPiMlnKqb-zzvA-8">
                    <mxCell style="text;html=1;strokeColor=none;fillColor=none;align=left;verticalAlign=middle;whiteSpace=wrap;overflow=hidden;" parent="DWj55nzPiMlnKqb-zzvA-7" vertex="1">
                        <mxGeometry width="530" height="20" as="geometry"/>
                    </mxCell>
                </UserObject>
                <UserObject label="Data:" placeholders="1" name="Variable" id="DWj55nzPiMlnKqb-zzvA-9">
                    <mxCell style="text;html=1;strokeColor=none;fillColor=none;align=left;verticalAlign=middle;whiteSpace=wrap;overflow=hidden;" parent="DWj55nzPiMlnKqb-zzvA-7" vertex="1">
                        <mxGeometry y="20" width="530" height="20" as="geometry"/>
                    </mxCell>
                </UserObject>
                <UserObject label="Pronto:" placeholders="1" name="Variable" id="DWj55nzPiMlnKqb-zzvA-10">
                    <mxCell style="text;html=1;strokeColor=none;fillColor=none;align=left;verticalAlign=middle;whiteSpace=wrap;overflow=hidden;" parent="DWj55nzPiMlnKqb-zzvA-7" vertex="1">
                        <mxGeometry y="40" width="530" height="20" as="geometry"/>
                    </mxCell>
                </UserObject>
                <UserObject label="Status:" placeholders="1" name="Variable" id="DWj55nzPiMlnKqb-zzvA-11">
                    <mxCell style="text;html=1;strokeColor=none;fillColor=none;align=left;verticalAlign=middle;whiteSpace=wrap;overflow=hidden;" parent="DWj55nzPiMlnKqb-zzvA-7" vertex="1">
                        <mxGeometry y="60" width="530" height="20" as="geometry"/>
                    </mxCell>
                </UserObject>
                <mxCell id="DWj55nzPiMlnKqb-zzvA-12" value="Evento de recurso" style="text;strokeColor=none;fillColor=none;html=1;fontSize=18;fontStyle=1;verticalAlign=middle;align=left;" parent="DWj55nzPiMlnKqb-zzvA-1" vertex="1">
                    <mxGeometry x="20" y="300" width="100" height="40" as="geometry"/>
                </mxCell>
                <UserObject label="Evento de inscrição associado: &quot;Inscrições&quot;" placeholders="1" name="Variable" id="DWj55nzPiMlnKqb-zzvA-16">
                    <mxCell style="text;html=1;strokeColor=none;fillColor=none;align=left;verticalAlign=middle;whiteSpace=wrap;overflow=hidden;" parent="DWj55nzPiMlnKqb-zzvA-1" vertex="1">
                        <mxGeometry x="20" y="340" width="510" height="20" as="geometry"/>
                    </mxCell>
                </UserObject>
                <mxCell id="DWj55nzPiMlnKqb-zzvA-17" value="" style="html=1;verticalLabelPosition=bottom;align=center;labelBackgroundColor=#ffffff;verticalAlign=top;strokeWidth=2;strokeColor=#0080F0;shadow=0;dashed=0;shape=mxgraph.ios7.icons.eye;rounded=0;aspect=fixed;" parent="DWj55nzPiMlnKqb-zzvA-1" vertex="1">
                    <mxGeometry x="560" y="338.00000000000006" width="35.18" height="20" as="geometry"/>
                </mxCell>
                <mxCell id="DWj55nzPiMlnKqb-zzvA-18" value="" style="pointerEvents=1;shadow=0;dashed=0;html=1;strokeColor=none;fillColor=#505050;labelPosition=center;verticalLabelPosition=bottom;verticalAlign=top;outlineConnect=0;align=center;shape=mxgraph.office.concepts.writing_pencil;aspect=fixed;" parent="DWj55nzPiMlnKqb-zzvA-1" vertex="1">
                    <mxGeometry x="600" y="340" width="20" height="20" as="geometry"/>
                </mxCell>
                <mxCell id="DWj55nzPiMlnKqb-zzvA-19" value="" style="verticalLabelPosition=bottom;verticalAlign=top;html=1;shadow=0;dashed=0;strokeWidth=1;shape=mxgraph.ios.iDeleteApp;fillColor=#cccccc;fillColor2=#000000;strokeColor=#ffffff;" parent="DWj55nzPiMlnKqb-zzvA-1" vertex="1">
                    <mxGeometry x="630" y="340.5" width="15" height="15" as="geometry"/>
                </mxCell>
                <mxCell id="DWj55nzPiMlnKqb-zzvA-20" value="" style="endArrow=classic;html=1;" parent="1" source="K-W6jXl_5-GQBgab59d4-2" target="DWj55nzPiMlnKqb-zzvA-1" edge="1">
                    <mxGeometry width="50" height="50" relative="1" as="geometry">
                        <mxPoint x="760" y="410" as="sourcePoint"/>
                        <mxPoint x="810" y="360" as="targetPoint"/>
                    </mxGeometry>
                </mxCell>
            </root>
        </mxGraphModel>
    </diagram>
</mxfile>